<svg width="10" height="8" viewBox="0 0 10 8" fill="none" xmlns="http://www.w3.org/2000/svg">
<path d="M5.16873 4.56769L2.09798 7.63844C1.88574 7.85068 1.54254 7.85068 1.33255 7.63844L0.822268 7.12815C0.610025 6.91591 0.610025 6.57271 0.822268 6.36272L2.99889 4.1861L0.822268 2.00948C0.610025 1.79724 0.610025 1.45404 0.822268 1.24405L1.3303 0.729251C1.54254 0.517008 1.88574 0.517008 2.09573 0.729251L5.16647 3.8C5.38097 4.01224 5.38097 4.35545 5.16873 4.56769V4.56769ZM9.5039 3.8L6.43316 0.729251C6.22091 0.517008 5.87771 0.517008 5.66773 0.729251L5.15744 1.23954C4.9452 1.45178 4.9452 1.79498 5.15744 2.00497L7.33406 4.18159L5.15744 6.35821C4.9452 6.57045 4.9452 6.91365 5.15744 7.12364L5.66773 7.63392C5.87997 7.84616 6.22317 7.84616 6.43316 7.63392L9.5039 4.56317C9.71615 4.35544 9.71615 4.01224 9.5039 3.8Z" fill="black"/>
</svg>
