<svg width="82" height="57" viewBox="0 0 82 57" fill="none" xmlns="http://www.w3.org/2000/svg">
<circle cx="3" cy="3" r="3" fill="#A7A4DF" fill-opacity="0.88"/>
<circle cx="3" cy="20" r="3" fill="#A7A4DF" fill-opacity="0.88"/>
<circle cx="3" cy="37" r="3" fill="#A7A4DF" fill-opacity="0.88"/>
<circle cx="3" cy="54" r="3" fill="#A7A4DF" fill-opacity="0.88"/>
<circle cx="22" cy="3" r="3" fill="#A7A4DF" fill-opacity="0.88"/>
<circle cx="22" cy="20" r="3" fill="#A7A4DF" fill-opacity="0.88"/>
<circle cx="22" cy="37" r="3" fill="#A7A4DF" fill-opacity="0.88"/>
<circle cx="22" cy="54" r="3" fill="#A7A4DF" fill-opacity="0.88"/>
<circle cx="41" cy="3" r="3" fill="#A7A4DF" fill-opacity="0.88"/>
<circle cx="41" cy="20" r="3" fill="#A7A4DF" fill-opacity="0.88"/>
<circle cx="41" cy="37" r="3" fill="#A7A4DF" fill-opacity="0.88"/>
<circle cx="41" cy="54" r="3" fill="#A7A4DF" fill-opacity="0.88"/>
<circle cx="60" cy="3" r="3" fill="#A7A4DF" fill-opacity="0.88"/>
<circle cx="60" cy="20" r="3" fill="#A7A4DF" fill-opacity="0.88"/>
<circle cx="60" cy="37" r="3" fill="#A7A4DF" fill-opacity="0.88"/>
<circle cx="60" cy="54" r="3" fill="#A7A4DF" fill-opacity="0.88"/>
<circle cx="79" cy="3" r="3" fill="#A7A4DF" fill-opacity="0.88"/>
<circle cx="79" cy="20" r="3" fill="#A7A4DF" fill-opacity="0.88"/>
<circle cx="79" cy="37" r="3" fill="#A7A4DF" fill-opacity="0.88"/>
<circle cx="79" cy="54" r="3" fill="#A7A4DF" fill-opacity="0.88"/>
</svg>
